<svg width="73" height="28" viewBox="0 0 73 28" fill="none" xmlns="http://www.w3.org/2000/svg">
    <path d="M1.752 22V5.248H6.768C7.968 5.248 9.048 5.448 10.008 5.848C10.984 6.232 11.816 6.792 12.504 7.528C13.192 8.248 13.72 9.12 14.088 10.144C14.456 11.168 14.64 12.312 14.64 13.576C14.64 14.856 14.456 16.016 14.088 17.056C13.72 18.08 13.192 18.968 12.504 19.72C11.816 20.456 10.984 21.024 10.008 21.424C9.048 21.808 7.968 22 6.768 22H1.752ZM3.84 20.2H6.768C7.92 20.2 8.92 19.928 9.768 19.384C10.632 18.84 11.288 18.072 11.736 17.08C12.2 16.072 12.432 14.904 12.432 13.576C12.432 12.248 12.2 11.096 11.736 10.12C11.288 9.144 10.632 8.392 9.768 7.864C8.92 7.32 7.92 7.048 6.768 7.048H3.84V20.2ZM23.5534 22.288C22.2094 22.288 21.0494 22.016 20.0734 21.472C19.0974 20.912 18.3454 20.12 17.8174 19.096C17.3054 18.056 17.0494 16.824 17.0494 15.4C17.0494 13.976 17.3134 12.76 17.8414 11.752C18.3694 10.728 19.1214 9.944 20.0974 9.4C21.0734 8.84 22.2414 8.56 23.6014 8.56C25.6494 8.56 27.1934 9.12 28.2334 10.24C29.2734 11.36 29.7374 12.904 29.6254 14.872H18.6334V13.312L27.5854 13.36C27.5214 12.4 27.1294 11.64 26.4094 11.08C25.6894 10.504 24.7534 10.216 23.6014 10.216C22.1614 10.216 21.0414 10.68 20.2414 11.608C19.4414 12.52 19.0414 13.8 19.0414 15.448C19.0414 16.488 19.2174 17.4 19.5694 18.184C19.9374 18.952 20.4574 19.552 21.1294 19.984C21.8014 20.4 22.6094 20.608 23.5534 20.608C24.6734 20.608 25.6094 20.344 26.3614 19.816C27.1294 19.272 27.6014 18.536 27.7774 17.608H29.7694C29.5294 19.064 28.8574 20.208 27.7534 21.04C26.6494 21.872 25.2494 22.288 23.5534 22.288ZM37.8908 22L32.6108 8.848H34.7228L38.0588 17.2L39.0428 20.128L40.0268 17.2L43.3387 8.848H45.4028L40.1228 22H37.8908Z"
          fill="white"/>
    <g clip-path="url(#clip0_2_154)">
        <path d="M69.8269 4.65387H54.1731C52.2854 4.65387 50.75 6.18922 50.75 8.07694V19.9231C50.75 21.8108 52.2854 23.3461 54.1731 23.3461H69.8269C71.7146 23.3461 73.25 21.8108 73.25 19.9231V8.07694C73.25 6.18922 71.7146 4.65387 69.8269 4.65387ZM71.4808 15.6539H67.0769C66.1652 15.6539 65.4231 14.9117 65.4231 14C65.4231 13.0883 66.1652 12.3462 67.0769 12.3462H71.4808V15.6539ZM71.4808 10.5769H67.0769C65.1892 10.5769 63.6539 12.1123 63.6539 14C63.6539 15.8877 65.1892 17.4231 67.0769 17.4231H71.4808V19.9231C71.4808 20.8348 70.7387 21.5769 69.8269 21.5769H54.1731C53.2614 21.5769 52.5192 20.8348 52.5192 19.9231V8.07694C52.5192 7.16524 53.2613 6.42308 54.1731 6.42308H69.8269C70.7386 6.42308 71.4808 7.1652 71.4808 8.07694V10.5769Z"
              fill="white" stroke="white" stroke-width="0.5"/>
        <path d="M67.9231 13.3654H67.077C66.7265 13.3654 66.4424 13.6495 66.4424 14C66.4424 14.3505 66.7265 14.6346 67.077 14.6346H67.9231C68.2736 14.6346 68.5577 14.3504 68.5577 14C68.5577 13.6495 68.2736 13.3654 67.9231 13.3654Z"
              fill="white"/>
    </g>
    <defs>
        <clipPath id="clip0_2_154">
            <rect width="22" height="22" fill="white" transform="translate(51 3)"/>
        </clipPath>
    </defs>
</svg>
